<?xml version="1.0" encoding="UTF-8" standalone="no"?>
<svg width="265px" height="266px" viewBox="0 0 265 266" version="1.1" xmlns="http://www.w3.org/2000/svg" xmlns:xlink="http://www.w3.org/1999/xlink">
    <!-- Generator: Sketch 47 (45396) - http://www.bohemiancoding.com/sketch -->
    <title>Asset 2</title>
    <desc>Created with Sketch.</desc>
    <defs></defs>
    <g id="Page-1" stroke="none" stroke-width="1" fill="none" fill-rule="evenodd">
        <g id="Asset-2" transform="translate(0.000000, -1.000000)" fill-rule="nonzero" fill="#FFFFFF">
            <path d="M27.16,231.07 L27.5,231.07 C28.18,228.95 29.45,225.73 31.22,221.41 L36,209.47 L53.72,209.47 L35.19,244.63 L35.19,265.3 L19.61,265.3 C19.0577153,265.3 18.61,264.852285 18.61,264.3 L18.61,244.63 L0,209.47 L17.85,209.47 L27.16,231.07 Z" id="Shape"></path>
            <path d="M110.93,235.23 C117.02,237.94 120.07,243.11 120.07,248.78 C120.089587,253.200026 118.279827,257.431245 115.07,260.47 C111.77,263.69 107.54,265.3 102.29,265.3 L73.86,265.3 C73.3077153,265.3 72.86,264.852285 72.86,264.3 L72.86,209.39 L100.44,209.39 C105.35,209.39 109.24,210.75 112.2,213.46 C115.111497,216.029705 116.749137,219.747292 116.68,223.63 C116.770942,228.112392 114.612542,232.342855 110.93,234.9 L110.93,235.23 Z M88.93,221.5 L88.93,230.16 C88.93,230.712285 89.3777153,231.16 89.93,231.16 L95.61,231.16 C98.32,231.16 101.19,229.72 101.19,226.33 C101.19,223.53 99.19,221.5 95.78,221.5 L88.93,221.5 Z M97.47,241.83 L89,241.83 L89,251.83 C89,252.382285 89.4477153,252.83 90,252.83 L97.9,252.83 C102.64,252.83 104.25,250.2 104.25,247.24 C104.25,243.94 101.63,241.82 97.48,241.82 L97.47,241.83 Z" id="Shape"></path>
            <path d="M175.54,209.47 L192.12,209.47 L192.12,242.09 C192.12,249.38 190,255.22 185.69,259.71 C181.38,264.2 175.11,266.32 166.91,266.32 C149.91,266.32 141.62,257.09 141.62,242.6 L141.62,209.47 L158.29,209.47 L158.29,242.76 C158.29,248.27 161.29,252.84 167,252.84 C172.5,252.84 175.55,248.44 175.55,243.27 L175.54,209.47 Z" id="Shape"></path>
            <path d="M238.38,231.07 L238.72,231.07 C239.4,228.95 240.67,225.73 242.44,221.41 L247.18,209.46 L264.95,209.46 L246.42,244.62 L246.42,265.3 L230.83,265.3 C230.277715,265.3 229.83,264.852285 229.83,264.3 L229.83,244.63 L211.22,209.47 L229.07,209.47 L238.38,231.07 Z" id="Shape"></path>
            <path d="M198,38.36 L133.92,1.32 C133.170701,0.889760765 132.249299,0.889760765 131.5,1.32 L67.45,38.32 C66.701452,38.7545504 66.2405511,39.554461 66.24,40.42 L66.24,114.49 C66.2405511,115.355539 66.701452,116.15545 67.45,116.59 L131.5,153.59 L131.5,153.59 C132.248751,154.022291 133.171249,154.022291 133.92,153.59 L133.92,153.59 L197.97,116.59 C198.718548,116.15545 199.179449,115.355539 199.18,114.49 L199.18,40.46 C199.185703,39.6005837 198.737019,38.8020774 198,38.36 L198,38.36 Z M135.14,78.9 L135.14,116.63 L130.29,116.63 L130.29,78.9 L99.47,61.08 L101.9,56.88 L132.71,74.69 L163.52,56.88 L165.95,61.08 L135.14,78.9 Z" id="Shape"></path>
        </g>
    </g>
</svg>