<?xml version="1.0" encoding="UTF-8" standalone="no"?>
<svg width="90px" height="26px" viewBox="0 0 90 26" version="1.1" xmlns="http://www.w3.org/2000/svg" xmlns:xlink="http://www.w3.org/1999/xlink">
    <!-- Generator: Sketch 47.1 (45422) - http://www.bohemiancoding.com/sketch -->
    <title>a-link</title>
    <desc>Created with Sketch.</desc>
    <defs></defs>
    <g id="Page-1" stroke="none" stroke-width="1" fill="none" fill-rule="evenodd">
        <g id="footer-logo-ybuy-dark">
            <g id="a-link">
                <g>
                    <path d="M35.375,11.443 L35.453,11.443 C35.608,10.957 35.899,10.218 36.306,9.227 L37.392,6.485 L41.465,6.485 L37.218,14.555 L37.218,19.299 L33.646,19.299 C33.5189745,19.299 33.416,19.1960255 33.416,19.069 L33.416,14.555 L29.15,6.485 L33.242,6.485 L35.375,11.443 Z M54.582,12.396 C55.978,13.019 56.676,14.205 56.676,15.508 C56.676,16.538 56.289,17.433 55.532,18.191 C54.776,18.93 53.806,19.299 52.603,19.299 L46.083,19.299 C45.9563652,19.2984494 45.8539988,19.195636 45.854,19.069 L45.854,6.467 L52.177,6.467 C53.302,6.467 54.194,6.777 54.873,7.4 C55.551,8.022 55.901,8.8 55.901,9.733 C55.901,10.803 55.454,11.678 54.581,12.32 L54.581,12.397 L54.582,12.396 Z M69.393,6.485 L73.195,6.485 L73.195,13.971 C73.195,15.644 72.71,16.985 71.721,18.016 C70.731,19.027 69.297,19.533 67.415,19.533 C63.517,19.533 61.617,17.413 61.617,14.088 L61.617,6.485 L65.437,6.485 L65.437,14.127 C65.437,15.391 66.135,16.441 67.435,16.441 C68.695,16.441 69.393,15.43 69.393,14.243 L69.393,6.485 Z M83.8,11.443 L83.877,11.443 C84.032,10.957 84.323,10.218 84.731,9.227 L85.817,6.485 L89.89,6.485 L85.642,14.555 L85.642,19.299 L82.07,19.299 C81.9429745,19.299 81.84,19.1960255 81.84,19.069 L81.84,14.555 L77.574,6.485 L81.666,6.485 L83.8,11.443 L83.8,11.443 Z M22.36,6.348 C22.488,6.422 22.566,6.558 22.566,6.706 L22.566,19.292 C22.5666349,19.4394148 22.4884597,19.5759355 22.361,19.65 L11.489,25.943 C11.3615268,26.0165967 11.2044732,26.0165967 11.077,25.943 L0.206,19.65 C0.0781554955,19.5761898 -0.000428722989,19.4396211 0,19.292 L0,6.706 C0,6.558 0.078,6.422 0.206,6.348 L11.077,0.055 C11.2044177,-0.0188036037 11.3615823,-0.0188036037 11.489,0.055 L22.361,6.348 L22.36,6.348 Z M10.872,13.238 L10.872,19.65 L11.695,19.65 L11.695,13.237 L16.925,10.21 L16.513,9.495 L11.283,12.523 L6.053,9.495 L5.642,10.21 L10.872,13.237 L10.872,13.238 Z" id="a" fill="#414141" fill-rule="nonzero"></path>
                    <path d="M49.539,9.246 L51.11,9.246 C51.886,9.246 52.351,9.713 52.351,10.354 C52.351,11.132 51.691,11.463 51.071,11.463 L49.768,11.463 C49.6413652,11.4624494 49.5389988,11.359636 49.539,11.233 L49.539,9.246 Z" id="a-path" fill="#FFFFFF"></path>
                    <path d="M51.498,13.913 C52.448,13.913 53.05,14.399 53.05,15.157 C53.05,15.837 52.681,16.441 51.595,16.441 L49.788,16.441 C49.6609745,16.441 49.558,16.3380255 49.558,16.211 L49.558,13.913 L51.498,13.913 L51.498,13.913 Z" id="a-path" fill="#FFFFFF"></path>
                </g>
            </g>
        </g>
    </g>
</svg>