<svg xmlns="http://www.w3.org/2000/svg" xmlns:xlink="http://www.w3.org/1999/xlink" width="90" height="26" viewBox="0 0 90 26">
    <defs>
        <path id="a" d="M35.375 11.443h.078c.155-.486.446-1.225.853-2.216l1.086-2.742h4.073l-4.247 8.07v4.744h-3.572a.23.23 0 0 1-.23-.23v-4.514l-4.266-8.07h4.092l2.133 4.958zm16.123 2.47c.95 0 1.552.486 1.552 1.244 0 .68-.369 1.284-1.455 1.284h-1.807a.23.23 0 0 1-.23-.23v-2.298h1.94zm-1.959-4.667h1.571c.776 0 1.241.467 1.241 1.108 0 .778-.66 1.109-1.28 1.109h-1.303a.23.23 0 0 1-.229-.23V9.246zm5.043 3.15c1.396.623 2.094 1.809 2.094 3.112 0 1.03-.387 1.925-1.144 2.683-.756.739-1.726 1.108-2.929 1.108h-6.52a.23.23 0 0 1-.229-.23V6.467h6.323c1.125 0 2.017.31 2.696.933.678.622 1.028 1.4 1.028 2.333 0 1.07-.447 1.945-1.32 2.587v.077zm14.811-5.911h3.802v7.486c0 1.673-.485 3.014-1.474 4.045-.99 1.011-2.424 1.517-4.306 1.517-3.898 0-5.798-2.12-5.798-5.445V6.485h3.82v7.642c0 1.264.698 2.314 1.998 2.314 1.26 0 1.958-1.011 1.958-2.198V6.485zM83.8 11.443h.077c.155-.486.446-1.225.854-2.216l1.086-2.742h4.073l-4.248 8.07v4.744H82.07a.23.23 0 0 1-.23-.23v-4.514l-4.266-8.07h4.092l2.134 4.958zM22.36 6.348c.128.074.206.21.206.358v12.586a.412.412 0 0 1-.205.358l-10.872 6.293a.412.412 0 0 1-.412 0L.206 19.65A.412.412 0 0 1 0 19.292V6.706c0-.148.078-.284.206-.358L11.077.055a.411.411 0 0 1 .412 0l10.872 6.293zm-11.488 6.89v6.412h.823v-6.413l5.23-3.027-.412-.715-5.23 3.028-5.23-3.028-.411.715 5.23 3.027z"/>
    </defs>
    <g fill="none" fill-rule="evenodd">
        <mask id="b" fill="#fff">
            <use xlink:href="#a"/>
        </mask>
        <use fill="#FFF" xlink:href="#a"/>
        <g fill="#FFF" mask="url(#b)">
            <path d="M0 0h90v26H0z"/>
        </g>
    </g>
</svg>
