<?xml version="1.0" encoding="UTF-8" standalone="no"?>
<svg width="18px" height="16px" viewBox="0 0 18 16" version="1.1" xmlns="http://www.w3.org/2000/svg" xmlns:xlink="http://www.w3.org/1999/xlink">
    <!-- Generator: Sketch 47.1 (45422) - http://www.bohemiancoding.com/sketch -->
    <title>header-icon-wishlist</title>
    <desc>Created with Sketch.</desc>
    <defs></defs>
    <g id="Page-1" stroke="none" stroke-width="1" fill="none" fill-rule="evenodd">
        <g id="header-icon-wishlist" fill="#FAFAFA">
            <g id="path-1">
                <path d="M13.5,0.00208333 C11.6252059,0.00208333 10.2065588,1.04122222 9,2.1270833 C7.8502647,0.97480556 6.3748235,0.00208333 4.5,0.00208333 C1.85961765,0.00208333 0,2.1461944 0,4.48425 C0,5.7385278 0.54394118,6.6421944 1.13961765,7.4905833 L8.1331765,15.4093889 C8.9184412,16.1940556 9.0663824,16.1940556 9.8516176,15.4093889 L16.8609118,7.4905833 C17.5612353,6.6421944 18,5.7385278 18,4.48425 C18,2.1462222 16.1403529,0.00208333 13.5,0.00208333 Z M15.75,7.2706667 L9,14.8770833 L2.25,7.2393056 C1.44282353,6.1794722 1.125,5.4644167 1.125,4.48425 C1.125,2.6578056 2.50594118,1.01358333 4.5,0.99816667 C6.1402647,0.98541667 7.9993235,2.5674722 9,3.7601389 C9.9742647,2.6089167 11.8597353,0.99816667 13.5,0.99816667 C15.4411765,0.99816667 16.875,2.6578056 16.875,4.48425 C16.875,5.4644167 16.6235588,6.2325833 15.75,7.2706667 Z" fill-rule="nonzero"></path>
            </g>
        </g>
    </g>
</svg>