<?xml version="1.0" encoding="UTF-8" standalone="no"?>
<svg width="18px" height="18px" viewBox="0 0 18 18" version="1.1" xmlns="http://www.w3.org/2000/svg" xmlns:xlink="http://www.w3.org/1999/xlink">
    <!-- Generator: Sketch 47.1 (45422) - http://www.bohemiancoding.com/sketch -->
    <title>header-icon-notification</title>
    <desc>Created with Sketch.</desc>
    <defs></defs>
    <g id="Page-1" stroke="none" stroke-width="1" fill="none" fill-rule="evenodd">
        <g id="header-icon-notification" fill="#FAFAFA">
            <g id="path-1">
                <path d="M14.9911811,0.781575856 C12.1381664,-0.827353997 8.48962806,0.127468189 6.84237847,2.91400326 L4.45657096,6.9506721 L0.00416965742,9.82230343 L4.65360196,12.444137 L4.65360196,12.444137 C3.82997716,13.8373899 4.31876672,15.618832 5.74496574,16.4233116 C7.1717814,17.2277618 8.99577162,16.7503654 9.81939641,15.3570832 L14.4688287,17.9788874 L14.7887178,12.7771811 L17.1745253,8.74051223 C18.8218042,5.9539478 17.8442251,2.39050571 14.9911811,0.781575856 Z M6.34160848,15.4139902 C5.48565416,14.9311909 5.19272104,13.862584 5.6862969,13.0263622 L8.78611419,14.7742414 C8.29195106,15.6104633 7.19759217,15.8967602 6.34160848,15.4139902 Z M16.1412724,8.15767047 L13.7554649,12.1943393 L13.5158564,16.0956411 L2.15039804,9.68693638 L5.48982382,7.53354323 L7.87563132,3.49687439 C9.19344861,1.26737031 12.1117684,0.503647635 14.3945677,1.79089723 C16.6773964,3.07755954 17.4590897,5.92819576 16.1412724,8.15767047 Z" fill-rule="nonzero"></path>
            </g>
        </g>
    </g>
</svg>