<?xml version="1.0" encoding="UTF-8"?>
<svg width="17px" height="17px" viewBox="0 0 17 17" version="1.1" xmlns="http://www.w3.org/2000/svg" xmlns:xlink="http://www.w3.org/1999/xlink">
    <!-- Generator: Sketch 47.1 (45422) - http://www.bohemiancoding.com/sketch -->
    <title>icon-review-deslike</title>
    <desc>Created with Sketch.</desc>
    <defs></defs>
    <g id="Page-1" stroke="none" stroke-width="1" fill="none" fill-rule="evenodd">
        <g id="dislike" fill-rule="nonzero" fill="#414141">
            <g id="a-link" transform="translate(8.500000, 8.500000) rotate(180.000000) translate(-8.500000, -8.500000) translate(-0.000000, 0.000000)">
                <g id="icon-review-deslike">
                    <path d="M16.158,6.261 C15.7424427,5.88762656 15.2046394,5.67919223 14.646,5.675 L10.977,5.675 L10.977,2.93 C10.977,1.776 10.652,0.944 10.01,0.456 C8.994,-0.318 7.594,0.123 7.534,0.145 C7.35797547,0.205140879 7.24003109,0.370987572 7.241,0.557 L7.241,3.627 C7.241,4.63 6.781,5.48 5.869,6.157 C5.189,6.663 4.493,6.883 4.42,6.909 L4.319,6.934 C4.16895891,6.66331032 3.88448727,6.49469205 3.575,6.493 L0.862,6.493 C0.388,6.493 0,6.894 0,7.386 L0,15.647 C0,16.139 0.388,16.541 0.862,16.541 L3.582,16.541 C3.84032676,16.5394685 4.08407685,16.4210861 4.245,16.219 C4.68390222,16.7112611 5.31050725,16.9949587 5.97,17 L13.225,17 C14.828,17 15.85,16.132 16.032,14.613 L16.972,8.576 C17.1,7.708 16.79,6.818 16.158,6.261 Z M3.603,15.647 C3.603,15.662 3.593,15.673 3.579,15.673 L0.862,15.673 C0.855272633,15.6730234 0.848844294,15.6702222 0.844281227,15.6652789 C0.83971816,15.6603355 0.837439342,15.653704 0.838,15.647 L0.838,7.386 C0.838,7.372 0.848,7.361 0.862,7.361 L3.582,7.361 C3.596,7.361 3.607,7.371 3.607,7.386 L3.607,15.647 L3.603,15.647 Z M16.137,8.439 L15.201,14.486 C15.201,14.49 15.201,14.497 15.198,14.504 C15.068,15.586 14.405,16.136 13.222,16.136 L5.967,16.136 C5.223,16.136 4.577,15.56 4.462,14.801 C4.458,14.776 4.452,14.751 4.444,14.725 L4.444,7.795 L4.626,7.751 C4.633,7.751 4.636,7.748 4.643,7.748 C4.678,7.737 5.506,7.495 6.34,6.88 C7.482,6.04 8.082,4.916 8.082,3.628 L8.082,0.904 C8.445,0.843 9.067,0.81 9.517,1.158 C9.929,1.472 10.139,2.069 10.139,2.93 L10.139,6.106 C10.139,6.344 10.327,6.54 10.558,6.54 L14.646,6.54 C14.992,6.54 15.337,6.673 15.613,6.92 C16.025,7.285 16.228,7.867 16.137,8.439 L16.137,8.439 Z" id="a"></path>
                </g>
            </g>
        </g>
    </g>
</svg>