<?xml version="1.0" encoding="UTF-8" standalone="no"?>
<svg width="30px" height="30px" viewBox="0 0 30 30" version="1.1" xmlns="http://www.w3.org/2000/svg" xmlns:xlink="http://www.w3.org/1999/xlink">
    <!-- Generator: Sketch 47.1 (45422) - http://www.bohemiancoding.com/sketch -->
    <title>icon-heart</title>
    <desc>Created with Sketch.</desc>
    <defs></defs>
    <g id="Symbols" stroke="none" stroke-width="1" fill="none" fill-rule="evenodd">
        <g id="icon-heart" fill-rule="nonzero">
            <g>
                <g id="Clipped">
                    <g id="Group-Clipped">
                        <g id="Group">
                            <g id="Shape">
                                <polygon points="0 0 30 0 30 30 0 30"></polygon>
                            </g>
                        </g>
                    </g>
                </g>
                <g id="a-link" transform="translate(6.000000, 8.000000)" fill="#414141">
                    <path d="M13.5,-2.92910769e-16 C11.7833912,0.110672223 10.1737988,0.87254595 9,2.13 C7.8517634,0.838001734 6.22712051,0.069004097 4.5,4.13189448e-16 C3.30836865,-0.0053198359 2.16371835,0.464329267 1.31922478,1.30506953 C0.474731209,2.1458098 -1.1874693e-05,3.28835677 8.8817842e-16,4.48 C0.0400279015,5.57809942 0.440674862,6.63243353 1.14,7.48 L8.14,15.4 C8.92,16.18 9.07,16.18 9.86,15.4 L16.86,7.48 C18.03054,6.15554102 18.3172867,4.26846398 17.5930081,2.65608191 C16.8687296,1.04369983 15.2675785,0.00466246044 13.5,-2.92910769e-16 Z M15.75,7.27 L9,14.88 L2.25,7.24 C1.55584735,6.48928426 1.1578584,5.51207922 1.13,4.49 C1.11126554,3.57949907 1.45644843,2.69912794 2.08904474,2.04400595 C2.72164105,1.38888396 3.58940089,1.01312151 4.5,1 C6.14,1 8,2.57 9,3.76 C10,2.61 11.86,1 13.5,1 C15.3960166,1.03287054 16.9078474,2.59390296 16.88,4.49 C16.891202,5.53168477 16.4883574,6.5351993 15.76,7.28 L15.75,7.27 Z" id="a"></path>
                </g>
            </g>
        </g>
    </g>
</svg>