<?xml version="1.0" encoding="UTF-8"?>
<svg width="36px" height="36px" viewBox="0 0 36 36" version="1.1" xmlns="http://www.w3.org/2000/svg" xmlns:xlink="http://www.w3.org/1999/xlink">
    <defs>
        <path id="expand" d="M13.175 16.005l-6.067 6.068.017-3.698a.563.563 0 0 0-1.125 0v5.063c0 .166.069.3.178.393a.56.56 0 0 0 .4.169h5.047a.563.563 0 0 0 0-1.125H7.896l6.075-6.074-.796-.796zM23.822 6.17a.559.559 0 0 0-.4-.169h-5.047a.563.563 0 0 0 0 1.125h3.728l-6.074 6.074.796.796 6.068-6.068-.018 3.698a.563.563 0 0 0 1.125 0V6.562c0-.166-.069-.3-.178-.393z"/>
    </defs>
    <g id="page-2" stroke="none" stroke-width="1" fill="none" fill-rule="evenodd">
        <mask id="mask-2" fill="#fff">
            <use xlink:href="#expand"></use>
        </mask>
        <use id="expand" fill="#fff" xlink:href="#expand"></use>
    </g>
</svg>
