<?xml version="1.0" encoding="UTF-8"?>
<svg width="12px" height="8px" viewBox="0 0 12 8" version="1.1" xmlns="http://www.w3.org/2000/svg" xmlns:xlink="http://www.w3.org/1999/xlink">
    <!-- Generator: Sketch 47.1 (45422) - http://www.bohemiancoding.com/sketch -->
    <title>icon-crown-reviewer</title>
    <desc>Created with Sketch.</desc>
    <defs></defs>
    <g id="Page-1" stroke="none" stroke-width="1" fill="none" fill-rule="evenodd">
        <g id="icon-crown-reviewer" fill="#F5C16B">
            <g id="path-1">
                <path d="M12,0.74418047 C12,0.33383797 11.67375,0 11.2727344,0 C10.8717187,0 10.5454688,0.33383797 10.5454688,0.74418047 C10.5454688,0.94935172 10.6270313,1.13540883 10.7587031,1.27014315 L8.5454766,3.5348932 L6.4147969,1.35465787 C6.6034219,1.22006745 6.7273125,0.99681331 6.7273125,0.74420445 C6.7273125,0.33386195 6.4010625,2.398e-05 6.0000469,2.398e-05 C5.59903125,2.398e-05 5.27278125,0.33386195 5.27278125,0.74420445 C5.27278125,0.99681331 5.39667188,1.22006745 5.58529688,1.35465787 L3.45461719,3.5348932 L1.24139063,1.27014315 C1.3730625,1.13540883 1.454625,0.94935172 1.454625,0.74418047 C1.454625,0.33383797 1.128375,0 0.72735938,0 C0.32634375,0 0,0.33383797 0,0.74418047 C0,1.0902016 0.23228906,1.38094282 0.54546094,1.46387469 L0.54546094,8 L11.4545625,8 L11.4545625,1.46389867 C11.7677109,1.3809668 12,1.0902016 12,0.74418047 Z" fill-rule="nonzero"></path>
            </g>
        </g>
    </g>
</svg>