<?xml version="1.0" encoding="UTF-8" standalone="no"?>
<svg width="17px" height="17px" viewBox="0 0 17 17" version="1.1" xmlns="http://www.w3.org/2000/svg" xmlns:xlink="http://www.w3.org/1999/xlink">
    <!-- Generator: Sketch 47.1 (45422) - http://www.bohemiancoding.com/sketch -->
    <title>icon-like-up</title>
    <desc>Created with Sketch.</desc>
    <defs></defs>
    <g id="Page-1" stroke="none" stroke-width="1" fill="none" fill-rule="evenodd">
        <g id="icon-like-up" fill="#FFFFFF">
            <g id="Shape">
                <path d="M16.1576921,6.2611202 C15.7282634,5.881335 15.1906047,5.6751658 14.6459634,5.6751658 L14.0943395,5.6751658 L12.1077952,5.6751658 L10.9766171,5.6751658 L10.9766171,2.92986111 C10.9766171,1.77603738 10.6519271,0.94412686 10.0095297,0.45583155 C8.9935642,-0.31820694 7.5935567,0.12306734 7.5342048,0.14476935 C7.3596402,0.20264139 7.2409364,0.3690235 7.2409364,0.55710762 L7.2409364,3.62794255 C7.2409364,4.6298522 6.780086,5.4798477 5.8688592,6.1562272 C5.1880576,6.6626075 4.4932908,6.8832446 4.4199737,6.9085636 L4.3187263,6.9338826 C4.1686008,6.6698415 3.89278883,6.4926084 3.5750814,6.4926084 L0.86234874,6.4926084 C0.38753324,6.4926084 0,6.8940956 0,7.3860079 L0,15.6472411 C0,16.1391535 0.38753324,16.5406407 0.86234874,16.5406407 L3.58206398,16.5406407 C3.84740206,16.5406407 4.0883011,16.4140456 4.2454092,16.2187275 C4.6818205,16.6997888 5.2997789,17 5.9701066,17 L8.270867,17 L8.5082748,17 L13.2250082,17 C14.8275105,17 15.8504586,16.1319195 16.0320057,14.6127785 L16.9711628,8.5760017 C17.1003405,7.7079211 16.7896157,6.8181386 16.1576921,6.2611202 Z M3.60301173,15.6472411 C3.60301173,15.6617092 3.59253785,15.6725602 3.57857269,15.6725602 L0.86234874,15.6725602 C0.84838357,15.6725602 0.8379097,15.6617092 0.8379097,15.6472411 L0.8379097,7.3860079 C0.8379097,7.3715399 0.84838357,7.3606889 0.86234874,7.3606889 L3.58206398,7.3606889 C3.59602914,7.3606889 3.60650302,7.3715399 3.60650302,7.3860079 L3.60650302,15.6472411 L3.60301173,15.6472411 Z M16.1367444,8.4385556 L15.2010785,14.4861834 C15.2010785,14.4898004 15.2010785,14.4970344 15.1975872,14.5042684 C15.0684095,15.5857521 14.4050643,16.1355365 13.2215169,16.1355365 L8.5047835,16.1355365 L8.2673757,16.1355365 L5.9666153,16.1355365 C5.2229705,16.1355365 4.5770818,15.5604331 4.4618692,14.8008626 C4.4583779,14.7755436 4.4513953,14.7502246 4.4444127,14.7249056 L4.4444127,7.7947292 L4.6259598,7.7513252 C4.6329424,7.7513252 4.6364337,7.7477082 4.6434163,7.7477082 C4.6783292,7.7368571 5.505765,7.494518 6.3401834,6.8796276 C7.4818354,6.0404831 8.0823373,4.9155954 8.0823373,3.62794255 L8.0823373,0.90433983 C8.4454316,0.8428508 9.0668813,0.81029778 9.5172577,1.15752999 C9.92923,1.47220919 10.1387074,2.06901457 10.1387074,2.92986111 L10.1387074,6.1055891 C10.1387074,6.3443113 10.3272371,6.5396294 10.5576623,6.5396294 L12.1077952,6.5396294 L14.0943395,6.5396294 L14.6459634,6.5396294 C14.9916011,6.5396294 15.3372389,6.6734585 15.6130508,6.9194146 C16.0250231,7.2847319 16.2275179,7.8670692 16.1367444,8.4385556 Z" fill-rule="nonzero"></path>
            </g>
        </g>
    </g>
</svg>