<?xml version="1.0" encoding="UTF-8"?>
<svg width="18px" height="18px" viewBox="0 0 18 18" version="1.1" xmlns="http://www.w3.org/2000/svg" xmlns:xlink="http://www.w3.org/1999/xlink">
    <!-- Generator: Sketch 48.1 (47250) - http://www.bohemiancoding.com/sketch -->
    <title>icon-search-gray</title>
    <desc>Created with Sketch.</desc>
    <defs></defs>
    <g id="Page-1" stroke="none" stroke-width="1" fill="none" fill-rule="evenodd">
        <g id="header-icon-search" fill="#414141" fill-rule="nonzero">
            <g id="icon-search-gray">
                <path d="M17.8005905,16.9932333 L13.1607896,12.4275759 C14.3758042,11.1074976 15.1223491,9.3616737 15.1223491,7.4405775 C15.1217618,3.33099837 11.7368222,0 7.560969,0 C3.38511582,0 0.00017618,3.33099837 0.00017618,7.4405775 C0.00017618,11.5501566 3.38511582,14.881155 7.560969,14.881155 C9.3652268,14.881155 11.0200522,14.2570865 12.3198989,13.2195759 L16.9776998,17.8032333 C17.2046525,18.0268091 17.5731093,18.0268091 17.800062,17.8032333 C18.0275432,17.5796868 18.0275432,17.2168091 17.8005905,16.9932333 Z M7.560969,13.7363785 C4.02774225,13.7363785 1.1635106,10.9176607 1.1635106,7.4405775 C1.1635106,3.96349429 4.02774225,1.14477651 7.560969,1.14477651 C11.0942251,1.14477651 13.9584274,3.96349429 13.9584274,7.4405775 C13.9584274,10.9176607 11.0942251,13.7363785 7.560969,13.7363785 Z" id="Shape"></path>
            </g>
        </g>
    </g>
</svg>