<?xml version="1.0" encoding="UTF-8"?>
<svg width="266px" height="266px" viewBox="0 0 266 266" version="1.1" xmlns="http://www.w3.org/2000/svg" xmlns:xlink="http://www.w3.org/1999/xlink">
    <!-- Generator: Sketch 47.1 (45422) - http://www.bohemiancoding.com/sketch -->
    <title>logo_ybuy-home-new</title>
    <desc>Created with Sketch.</desc>
    <defs></defs>
    <g id="Page-1" stroke="none" stroke-width="1" fill="none" fill-rule="evenodd">
        <g id="logo_ybuy-home-new" fill-rule="nonzero" fill="#FFFFFF">
            <path d="M27.683,230.416 L28.022,230.416 C28.699,228.298 29.968,225.079 31.743,220.759 L36.482,208.814 L54.248,208.814 L35.72,243.971 L35.72,264.643 L20.138,264.643 C19.586,264.643 19.139,264.195 19.139,263.643 L19.139,243.971 L0.527,208.814 L18.378,208.814 L27.683,230.416 Z" id="Shape"></path>
            <path d="M111.46,234.568 C117.551,237.279 120.597,242.446 120.597,248.122 C120.597,252.613 118.905,256.509 115.606,259.812 C112.306,263.032 108.077,264.641 102.831,264.641 L74.389,264.641 C73.838,264.641 73.391,264.194 73.391,263.641 L73.391,208.728 L100.97,208.728 C105.876,208.728 109.768,210.083 112.729,212.794 C115.69,215.505 117.213,218.894 117.213,222.96 C117.213,227.619 115.267,231.432 111.46,234.228 L111.46,234.568 L111.46,234.568 Z M89.465,220.843 L89.465,229.501 C89.465,230.053 89.912,230.501 90.464,230.501 L96.148,230.501 C98.855,230.501 101.732,229.061 101.732,225.672 C101.732,222.876 99.701,220.843 96.317,220.843 L89.465,220.843 L89.465,220.843 Z M98.009,241.175 L89.549,241.175 L89.549,251.19 C89.549,251.742 89.996,252.19 90.547,252.19 L98.431,252.19 C103.169,252.19 104.776,249.563 104.776,246.597 C104.776,243.293 102.154,241.175 98.009,241.175 L98.009,241.175 Z" id="Shape"></path>
            <path d="M176.068,208.813 L192.649,208.813 L192.649,241.428 C192.649,248.714 190.535,254.56 186.22,259.049 C181.906,263.456 175.645,265.657 167.439,265.657 C150.435,265.657 142.145,256.423 142.145,241.936 L142.145,208.812 L158.81,208.812 L158.81,242.105 C158.81,247.612 161.856,252.187 167.523,252.187 C173.022,252.187 176.068,247.782 176.068,242.614 L176.068,208.813 Z" id="Shape"></path>
            <path d="M238.908,230.416 L239.247,230.416 C239.924,228.298 241.192,225.079 242.968,220.759 L247.707,208.814 L265.473,208.814 L246.947,243.971 L246.947,264.643 L231.363,264.643 C230.811,264.643 230.364,264.195 230.364,263.643 L230.364,243.971 L211.754,208.814 L229.605,208.814 L238.908,230.416 Z" id="Shape"></path>
            <path d="M198.504,37.699 L134.45,0.666 C133.7,0.233 132.775,0.233 132.025,0.666 L67.971,37.699 C67.221,38.133 66.76,38.935 66.76,39.802 L66.76,113.869 C66.76,114.736 67.221,115.538 67.971,115.971 L132.024,153.004 L132.025,153.005 C132.401,153.221 132.819,153.33 133.237,153.33 C133.656,153.33 134.074,153.221 134.45,153.005 L134.451,153.004 L198.504,115.971 C199.254,115.538 199.716,114.736 199.716,113.869 L199.716,39.802 C199.716,38.935 199.254,38.133 198.504,37.699 L198.504,37.699 Z M135.662,78.237 L135.662,115.971 L130.813,115.971 L130.813,78.237 L100,60.421 L102.428,56.218 L133.238,74.032 L164.05,56.218 L166.477,60.421 L135.662,78.237 Z" id="Shape"></path>
        </g>
    </g>
</svg>