<?xml version="1.0" encoding="UTF-8"?>
<svg width="24px" height="24px" viewBox="0 0 24 24" version="1.1" xmlns="http://www.w3.org/2000/svg" xmlns:xlink="http://www.w3.org/1999/xlink">
    <!-- Generator: Sketch 47.1 (45422) - http://www.bohemiancoding.com/sketch -->
    <title>icon</title>
    <desc>Created with Sketch.</desc>
    <defs></defs>
    <g id="Page-1" stroke="none" stroke-width="1" fill="none" fill-rule="evenodd">
        <g id="icon" fill-rule="nonzero">
            <circle id="Oval" fill="#FF6275" cx="12" cy="12" r="12"></circle>
            <path d="M14.147,11.36 C13.541,11.056 12.897,10.825 12.259,10.585 C11.889,10.445 11.536,10.284 11.223,10.059 C10.608,9.613 10.726,8.89 11.446,8.604 C11.65,8.524 11.864,8.497 12.081,8.486 C12.916,8.445 13.711,8.584 14.466,8.913 C14.842,9.078 14.966,9.026 15.094,8.671 C15.228,8.295 15.34,7.913 15.464,7.534 C15.547,7.28 15.445,7.112 15.18,7.005 C14.6963997,6.80946681 14.1911426,6.67249346 13.675,6.597 C12.993,6.502 12.993,6.499 12.99,5.877 C12.987,5.001 12.987,5.001 12.017,5.001 C11.877,5.001 11.737,4.998 11.597,5.001 C11.143,5.013 11.067,5.085 11.054,5.499 C11.048,5.684 11.054,5.869 11.051,6.057 C11.048,6.607 11.045,6.597 10.464,6.788 C9.061,7.251 8.194,8.118 8.101,9.506 C8.018,10.736 8.726,11.565 9.839,12.169 C10.525,12.542 11.284,12.762 12.011,13.054 C12.295,13.167 12.566,13.297 12.801,13.476 C13.5,14 13.372,14.87 12.543,15.199 C12.1,15.376 11.631,15.419 11.15,15.364 C10.407,15.281 9.696,15.104 9.026,14.789 C8.634,14.604 8.519,14.653 8.386,15.038 C8.27,15.37 8.168,15.705 8.066,16.041 C7.929,16.492 7.98,16.599 8.456,16.81 C9.061,17.076 9.708,17.212 10.369,17.307 C10.885,17.383 10.901,17.403 10.907,17.889 C10.911,18.109 10.911,18.331 10.914,18.551 C10.917,18.828 11.064,18.991 11.379,18.996 C11.736,19.002 12.097,19.002 12.454,18.993 C12.747,18.987 12.897,18.843 12.897,18.573 C12.897,18.273 12.913,17.97 12.9,17.669 C12.884,17.362 13.031,17.206 13.356,17.125 C14.106,16.94 14.744,16.575 15.235,16.032 C16.599,14.529 16.08,12.328 14.147,11.36 L14.147,11.36 Z" id="Shape" fill="#FFFFFF"></path>
        </g>
    </g>
</svg>