<?xml version="1.0" encoding="UTF-8" standalone="no"?>
<svg width="16px" height="14px" viewBox="0 0 16 14" version="1.1" xmlns="http://www.w3.org/2000/svg" xmlns:xlink="http://www.w3.org/1999/xlink">
    <!-- Generator: Sketch 47.1 (45422) - http://www.bohemiancoding.com/sketch -->
    <title>Shape</title>
    <desc>Created with Sketch.</desc>
    <defs></defs>
    <g id="Page-1" stroke="none" stroke-width="1" fill="none" fill-rule="evenodd">
        <g id="rating-star-empty">
            <path d="M15.97,5.433 C15.97,5.216 15.8,5.082 15.46,5.029 L10.883,4.388 L8.832,0.39 C8.717,0.15 8.568,0.03 8.385,0.03 C8.203,0.03 8.055,0.15 7.939,0.39 L5.887,4.388 L1.31,5.028 C0.97,5.082 0.8,5.216 0.8,5.433 C0.8,5.556 0.876,5.697 1.028,5.855 L4.347,8.965 L3.563,13.357 C3.55,13.439 3.544,13.497 3.544,13.533 C3.544,13.656 3.576,13.759 3.64,13.844 C3.704,13.93 3.8,13.972 3.927,13.972 C4.037,13.972 4.158,13.937 4.292,13.867 L8.385,11.793 L12.479,13.867 C12.607,13.937 12.729,13.972 12.843,13.972 C12.9515258,13.9785263 13.0561626,13.9305209 13.122,13.844 C13.1870906,13.7536434 13.2204896,13.6443056 13.217,13.533 C13.218047,13.4741962 13.2150398,13.4153902 13.208,13.357 L12.424,8.965 L15.734,5.855 C15.892,5.702 15.97,5.562 15.97,5.433 Z" id="Shape"></path>
        </g>
    </g>
</svg>